<?xml version="1.0" encoding="utf-8"?>
<!-- Generated by IcoMoon.io -->
<!DOCTYPE svg PUBLIC "-//W3C//DTD SVG 1.1//EN" "http://www.w3.org/Graphics/SVG/1.1/DTD/svg11.dtd">
<svg version="1.1" xmlns="http://www.w3.org/2000/svg" xmlns:xlink="http://www.w3.org/1999/xlink" width="186" height="40" viewBox="0 0 186 40">
<svg id="icon-file-text" width="16" height="16" viewBox="0 0 16 16" x="0" y="0">
<path fill="#444444" d="M14.341 3.579c-0.347-0.473-0.831-1.027-1.362-1.558s-1.085-1.015-1.558-1.362c-0.806-0.591-1.197-0.659-1.421-0.659h-7.75c-0.689 0-1.25 0.561-1.25 1.25v13.5c0 0.689 0.561 1.25 1.25 1.25h11.5c0.689 0 1.25-0.561 1.25-1.25v-9.75c0-0.224-0.068-0.615-0.659-1.421zM12.271 2.729c0.48 0.48 0.856 0.912 1.134 1.271h-2.406v-2.405c0.359 0.278 0.792 0.654 1.271 1.134zM14 14.75c0 0.136-0.114 0.25-0.25 0.25h-11.5c-0.135 0-0.25-0.114-0.25-0.25v-13.5c0-0.135 0.115-0.25 0.25-0.25 0 0 7.749-0 7.75 0v3.5c0 0.276 0.224 0.5 0.5 0.5h3.5v9.75z"></path>
<path fill="#444444" d="M11.5 13h-7c-0.276 0-0.5-0.224-0.5-0.5s0.224-0.5 0.5-0.5h7c0.276 0 0.5 0.224 0.5 0.5s-0.224 0.5-0.5 0.5z"></path>
<path fill="#444444" d="M11.5 11h-7c-0.276 0-0.5-0.224-0.5-0.5s0.224-0.5 0.5-0.5h7c0.276 0 0.5 0.224 0.5 0.5s-0.224 0.5-0.5 0.5z"></path>
<path fill="#444444" d="M11.5 9h-7c-0.276 0-0.5-0.224-0.5-0.5s0.224-0.5 0.5-0.5h7c0.276 0 0.5 0.224 0.5 0.5s-0.224 0.5-0.5 0.5z"></path>
</svg>
<svg id="icon-search" width="16" height="16" viewBox="0 0 16 16" x="24" y="0">
<path fill="#444444" d="M15.504 13.616l-3.79-3.223c-0.392-0.353-0.811-0.514-1.149-0.499 0.895-1.048 1.435-2.407 1.435-3.893 0-3.314-2.686-6-6-6s-6 2.686-6 6 2.686 6 6 6c1.486 0 2.845-0.54 3.893-1.435-0.016 0.338 0.146 0.757 0.499 1.149l3.223 3.79c0.552 0.613 1.453 0.665 2.003 0.115s0.498-1.452-0.115-2.003zM6 10c-2.209 0-4-1.791-4-4s1.791-4 4-4 4 1.791 4 4-1.791 4-4 4z"></path>
</svg>
<svg id="icon-leaf" width="16" height="16" viewBox="0 0 16 16" x="48" y="0">
<path fill="#444444" d="M15.802 2.102c-1.73-1.311-4.393-2.094-7.124-2.094-3.377 0-6.129 1.179-7.549 3.235-0.667 0.965-1.036 2.109-1.097 3.398-0.054 1.148 0.139 2.418 0.573 3.784 1.482-4.444 5.622-7.923 10.395-7.923 0 0-4.466 1.175-7.274 4.816-0.002 0.002-0.039 0.048-0.103 0.136-0.564 0.754-1.055 1.612-1.423 2.583-0.623 1.482-1.2 3.515-1.2 5.965h2c0 0-0.304-1.91 0.224-4.106 0.873 0.118 1.654 0.177 2.357 0.177 1.839 0 3.146-0.398 4.115-1.252 0.868-0.765 1.347-1.794 1.854-2.882 0.774-1.663 1.651-3.547 4.198-5.002 0.146-0.083 0.24-0.234 0.251-0.402s-0.063-0.329-0.197-0.431z"></path>
</svg>
<svg id="icon-facebook" width="16" height="16" viewBox="0 0 16 16" x="72" y="0">
<path fill="#444444" d="M13.334 0h-10.667c-1.473 0-2.666 1.194-2.666 2.667v10.666c0 1.473 1.194 2.667 2.666 2.667h5.334v-7h-2v-2h2v-1.5c0-1.381 1.119-2.5 2.5-2.5h2.5v2h-2.5c-0.276 0-0.5 0.224-0.5 0.5v1.5h2.75l-0.5 2h-2.25v7h3.334c1.473 0 2.666-1.194 2.666-2.667v-10.666c0-1.473-1.194-2.667-2.666-2.667z"></path>
</svg>
<svg id="icon-home" width="16" height="16" viewBox="0 0 16 16" x="96" y="0">
<path fill="#444444" d="M16 9.5l-3-3v-4.5h-2v2.5l-3-3-8 8v0.5h2v5h5v-3h2v3h5v-5h2z"></path>
</svg>
<svg id="icon-office" width="16" height="16" viewBox="0 0 16 16" x="120" y="0">
<path fill="#444444" d="M0 16h8v-16h-8v16zM5 2h2v2h-2v-2zM5 6h2v2h-2v-2zM5 10h2v2h-2v-2zM1 2h2v2h-2v-2zM1 6h2v2h-2v-2zM1 10h2v2h-2v-2zM9 5h7v1h-7zM9 16h2v-4h3v4h2v-9h-7z"></path>
</svg>
<svg id="icon-droplet" width="16" height="16" viewBox="0 0 16 16" x="144" y="0">
<path fill="#444444" d="M13.51 7.393c-1.027-2.866-3.205-5.44-5.51-7.393-2.305 1.953-4.482 4.527-5.51 7.393-0.635 1.772-0.698 3.696 0.197 5.397 1.029 1.955 3.104 3.21 5.313 3.21s4.284-1.255 5.313-3.21c0.895-1.701 0.832-3.624 0.197-5.397zM11.543 11.859c-0.684 1.301-2.075 2.141-3.543 2.141-0.861 0-1.696-0.29-2.377-0.791 0.207 0.027 0.416 0.041 0.627 0.041 1.835 0 3.573-1.050 4.428-2.676 0.701-1.333 0.64-2.716 0.373-3.818 0.227 0.44 0.42 0.878 0.576 1.311 0.353 0.985 0.625 2.443-0.084 3.791z"></path>
</svg>
<svg id="icon-ambients" width="18" height="16" viewBox="0 0 18 16" x="168" y="0">
<path fill="#444444" d="M17 2h-1v-1c0-0.55-0.45-1-1-1h-14c-0.55 0-1 0.45-1 1v12c0 0.55 0.45 1 1 1h1v1c0 0.55 0.45 1 1 1h14c0.55 0 1-0.45 1-1v-12c0-0.55-0.45-1-1-1zM2 3v10h-0.998c-0.001-0.001-0.001-0.001-0.002-0.002v-11.996c0.001-0.001 0.001-0.001 0.002-0.002h13.996c0.001 0.001 0.001 0.001 0.002 0.002v0.998h-12c-0.55 0-1 0.45-1 1v0zM17 14.998c-0.001 0.001-0.001 0.001-0.002 0.002h-13.996c-0.001-0.001-0.001-0.001-0.002-0.002v-11.996c0.001-0.001 0.001-0.001 0.002-0.002h13.996c0.001 0.001 0.001 0.001 0.002 0.002v11.996z"></path>
<path fill="#444444" d="M15 5.5c0 0.828-0.672 1.5-1.5 1.5s-1.5-0.672-1.5-1.5 0.672-1.5 1.5-1.5 1.5 0.672 1.5 1.5z"></path>
<path fill="#444444" d="M16 14h-12v-2l3.5-6 4 5h1l3.5-3z"></path>
</svg>
<svg id="icon-alarm" width="16" height="16" viewBox="0 0 16 16" x="0" y="24">
<path fill="#444444" d="M8 2c-3.866 0-7 3.134-7 7s3.134 7 7 7 7-3.134 7-7-3.134-7-7-7zM8 14.625c-3.107 0-5.625-2.518-5.625-5.625s2.518-5.625 5.625-5.625c3.107 0 5.625 2.518 5.625 5.625s-2.518 5.625-5.625 5.625zM14.606 4.487c0.251-0.438 0.394-0.946 0.394-1.487 0-1.657-1.343-3-3-3-0.966 0-1.825 0.457-2.374 1.166 2.061 0.426 3.831 1.644 4.98 3.322v0zM6.374 1.166c-0.549-0.709-1.408-1.166-2.374-1.166-1.657 0-3 1.343-3 3 0 0.541 0.143 1.049 0.394 1.487 1.148-1.678 2.919-2.896 4.98-3.322z"></path>
<path fill="#444444" d="M8 9v-4h-1v5h4v-1z"></path>
</svg>
<svg id="icon-hour-glass" width="16" height="16" viewBox="0 0 16 16" x="24" y="24">
<path fill="#444444" d="M11.39 8c2.152-1.365 3.61-3.988 3.61-7 0-0.339-0.019-0.672-0.054-1h-13.891c-0.036 0.328-0.054 0.661-0.054 1 0 3.012 1.457 5.635 3.609 7-2.152 1.365-3.609 3.988-3.609 7 0 0.339 0.019 0.672 0.054 1h13.891c0.036-0.328 0.054-0.661 0.054-1 0-3.012-1.457-5.635-3.609-7zM2.5 15c0-2.921 1.253-5.397 3.5-6.214v-1.572c-2.247-0.817-3.5-3.294-3.5-6.214v0h11c0 2.921-1.253 5.397-3.5 6.214v1.572c2.247 0.817 3.5 3.294 3.5 6.214h-11zM9.682 10.462c-1.12-0.635-1.181-1.459-1.182-1.959v-1.004c0-0.5 0.059-1.327 1.184-1.963 0.602-0.349 1.122-0.88 1.516-1.537h-6.4c0.395 0.657 0.916 1.188 1.518 1.538 1.12 0.635 1.181 1.459 1.182 1.959v1.004c0 0.5-0.059 1.327-1.184 1.963-1.135 0.659-1.98 1.964-2.236 3.537h7.839c-0.256-1.574-1.102-2.879-2.238-3.538z"></path>
</svg>
<svg id="icon-enlarge" width="16" height="16" viewBox="0 0 16 16" x="48" y="24">
<path fill="#444444" d="M16 0v6.5l-2.5-2.5-3 3-1.5-1.5 3-3-2.5-2.5zM7 10.5l-3 3 2.5 2.5h-6.5v-6.5l2.5 2.5 3-3z"></path>
</svg>
<svg id="icon-sun" width="16" height="16" viewBox="0 0 16 16" x="72" y="24">
<path fill="#444444" d="M8 13c0.552 0 1 0.448 1 1v1c0 0.552-0.448 1-1 1s-1-0.448-1-1v-1c0-0.552 0.448-1 1-1zM8 3c-0.552 0-1-0.448-1-1v-1c0-0.552 0.448-1 1-1s1 0.448 1 1v1c0 0.552-0.448 1-1 1zM15 7c0.552 0 1 0.448 1 1s-0.448 1-1 1h-1c-0.552 0-1-0.448-1-1s0.448-1 1-1h1zM3 8c0 0.552-0.448 1-1 1h-1c-0.552 0-1-0.448-1-1s0.448-1 1-1h1c0.552 0 1 0.448 1 1zM12.95 11.536l0.707 0.707c0.39 0.39 0.39 1.024 0 1.414s-1.024 0.39-1.414 0l-0.707-0.707c-0.39-0.39-0.39-1.024 0-1.414s1.024-0.39 1.414 0zM3.050 4.464l-0.707-0.707c-0.391-0.391-0.391-1.024 0-1.414s1.024-0.391 1.414 0l0.707 0.707c0.391 0.391 0.391 1.024 0 1.414s-1.024 0.391-1.414 0zM12.95 4.464c-0.39 0.391-1.024 0.391-1.414 0s-0.39-1.024 0-1.414l0.707-0.707c0.39-0.391 1.024-0.391 1.414 0s0.39 1.024 0 1.414l-0.707 0.707zM3.050 11.536c0.39-0.39 1.024-0.39 1.414 0s0.391 1.024 0 1.414l-0.707 0.707c-0.391 0.39-1.024 0.39-1.414 0s-0.391-1.024 0-1.414l0.707-0.707z"></path>
<path fill="#444444" d="M8 4c-2.209 0-4 1.791-4 4s1.791 4 4 4c2.209 0 4-1.791 4-4s-1.791-4-4-4zM8 10.5c-1.381 0-2.5-1.119-2.5-2.5s1.119-2.5 2.5-2.5 2.5 1.119 2.5 2.5-1.119 2.5-2.5 2.5z"></path>
</svg>
<svg id="icon-sort-amount-asc" width="16" height="16" viewBox="0 0 16 16" x="96" y="24">
<path fill="#444444" d="M5 12v-12h-2v12h-2.5l3.5 3.5 3.5-3.5h-2.5z"></path>
<path fill="#444444" d="M7 9h9v2h-9v-2z"></path>
<path fill="#444444" d="M7 6h7v2h-7v-2z"></path>
<path fill="#444444" d="M7 3h5v2h-5v-2z"></path>
<path fill="#444444" d="M7 0h3v2h-3v-2z"></path>
</svg>
</svg>
